<?xml version="1.0" encoding="UTF-8" standalone="no"?>
<!-- Created with Inkscape (http://www.inkscape.org/) -->

<svg
   width="37.985382mm"
   height="43.833637mm"
   viewBox="0 0 37.985382 43.833637"
   version="1.1"
   id="svg5"
   xml:space="preserve"
   sodipodi:docname="logo_focus.svg"
   inkscape:version="1.2.1 (9c6d41e410, 2022-07-14)"
   inkscape:export-filename="logo_focus.png"
   inkscape:export-xdpi="300"
   inkscape:export-ydpi="300"
   xmlns:inkscape="http://www.inkscape.org/namespaces/inkscape"
   xmlns:sodipodi="http://sodipodi.sourceforge.net/DTD/sodipodi-0.dtd"
   xmlns="http://www.w3.org/2000/svg"
   xmlns:svg="http://www.w3.org/2000/svg"><sodipodi:namedview
     id="namedview7"
     pagecolor="#ffffff"
     bordercolor="#666666"
     borderopacity="1.0"
     inkscape:showpageshadow="2"
     inkscape:pageopacity="0.0"
     inkscape:pagecheckerboard="0"
     inkscape:deskcolor="#d1d1d1"
     inkscape:document-units="mm"
     showgrid="false"
     inkscape:zoom="2.1165587"
     inkscape:cx="64.963944"
     inkscape:cy="139.61342"
     inkscape:window-width="1920"
     inkscape:window-height="1001"
     inkscape:window-x="-9"
     inkscape:window-y="615"
     inkscape:window-maximized="1"
     inkscape:current-layer="layer1" /><defs
     id="defs2" /><g
     inkscape:label="Layer 1"
     inkscape:groupmode="layer"
     id="layer1"
     transform="translate(-59.782068,-24.521397)"><path
       style="fill:#222222;stroke-width:0.0846667;fill-opacity:1"
       d="m 71.479894,68.241129 c -2.59487,-0.537936 -5.05063,-2.963066 -6.34869,-6.269506 -1.18752,-3.024903 -1.73039,-7.179779 -1.36488,-10.44629 0.0751,-0.671162 0.11808,-1.238759 0.0955,-1.261327 -0.0226,-0.02257 -0.43229,0.06535 -0.91049,0.195378 -1.00852,0.274227 -2.43551,0.459231 -2.96043,0.383808 -0.32969,-0.04737 -0.29991,-0.05753 0.31298,-0.106803 0.37254,-0.02995 0.98068,-0.155578 1.35144,-0.279175 0.95205,-0.317381 2.21531,-0.923148 2.31449,-1.109858 0.0461,-0.08675 0.16579,-0.554563 0.26601,-1.039581 0.81277,-3.933211 2.59054,-8.111825 4.9288,-11.585049 0.58423,-0.867808 1.86759,-2.549165 2.4107,-3.158308 l 0.4341,-0.486885 0.0447,-1.849953 c 0.0857,-3.549678 0.64665,-5.881477 1.56509,-6.505578 0.3844,-0.261203 0.5384,-0.265128 0.96632,-0.02463 0.77721,0.436817 1.39833,1.71277 1.73221,3.558418 0.0821,0.454025 0.18996,0.8255 0.23961,0.8255 0.0496,0 0.233,-0.09698 0.40744,-0.21552 0.93161,-0.633043 3.27063,-1.5719 4.53672,-1.820989 0.28393,-0.05586 0.83845,-0.08465 1.23228,-0.06398 1.37257,0.07204 2.5355,0.874689 3.24601,2.240382 0.74581,1.433525 1.16299,3.738517 1.10867,6.125437 l -0.0299,1.312333 1.43933,0.05641 c 1.33047,0.05214 1.49315,0.07645 2.15082,0.32135 2.36903,0.882164 4.80626,3.07128 5.97057,5.362748 0.7882,1.551255 1.15099,3.105928 1.14814,4.920114 -0.003,1.791534 -0.40103,3.301656 -1.41962,5.38371 -1.54812,3.16442 -4.42673,6.388373 -7.46891,8.364928 -0.96575,0.627466 -2.57064,1.394357 -2.94093,1.405314 -0.31954,0.0095 -0.50943,-0.168789 -0.42215,-0.396254 0.0278,-0.07243 0.32914,-0.292605 0.66964,-0.489272 3.16424,-1.827568 5.7724,-4.382289 7.97123,-7.807898 1.60407,-2.499028 2.62484,-5.521068 2.48359,-7.352795 -0.16504,-2.140161 -0.8365,-3.934067 -1.99607,-5.332719 -1.32749,-1.601205 -3.42035,-3.127072 -5.09365,-3.713683 -0.36098,-0.126548 -0.88312,-0.215199 -1.54828,-0.262877 -0.552,-0.03957 -1.0589,-0.11781 -1.12646,-0.173877 -0.22853,-0.189667 -0.2836,-0.400279 -0.36663,-1.402292 -0.0812,-0.97989 -0.40786,-2.758036 -0.63307,-3.446003 -0.0626,-0.191164 -0.17821,-0.576172 -0.25696,-0.855572 -0.19098,-0.677544 -0.73026,-1.786293 -1.06199,-2.183408 -0.33735,-0.403837 -1.15866,-0.823663 -1.72296,-0.880725 -0.26787,-0.02709 -0.63819,0.01 -0.97358,0.0975 -1.4557,0.379776 -3.93611,1.762622 -5.08255,2.833554 -0.21652,0.202257 -0.26051,0.307919 -0.26051,0.625691 0,0.633694 -0.40352,3.16733 -0.67011,4.207487 -0.34529,1.347217 -0.88386,2.949798 -1.19876,3.567059 -0.27689,0.542757 -0.27519,0.551357 0.74311,3.755511 0.20719,0.651933 0.55936,1.737783 0.7826,2.413 0.74746,2.260767 1.6045,5.012584 1.89857,6.096 1.13617,4.185963 1.61571,8.434275 1.20687,10.69173 -0.30163,1.665426 -1.10309,3.328573 -2.01321,4.177676 -1.41772,1.322684 -3.86275,1.99862 -5.78674,1.599763 z m 2.83461,-1.101654 c 0.75312,-0.225419 1.61364,-0.659635 2.15276,-1.086284 1.03666,-0.820382 1.74546,-2.914233 1.74245,-5.147335 -0.003,-2.112867 -0.57641,-5.547302 -1.38758,-8.308714 -0.52994,-1.804034 -0.66507,-2.237085 -1.22184,-3.915516 -0.72155,-2.175164 -1.81986,-5.682461 -1.96861,-6.2865 -0.0602,-0.244475 -0.13467,-0.4445 -0.16547,-0.4445 -0.0308,0 -0.17226,0.180975 -0.31436,0.402167 -1.6063,2.500467 -3.80551,4.770202 -6.00987,6.202605 -1.17632,0.76438 -1.09713,0.682585 -1.16282,1.201043 -0.0313,0.247052 -0.10982,0.773035 -0.17448,1.168852 -0.36035,2.20579 -0.3609,4.236831 -0.002,6.688666 0.32597,2.225664 0.79369,3.86944 1.51845,5.336562 1.67727,3.395252 4.33203,4.985471 6.99317,4.188954 z M 67.136334,47.35853 c 1.03546,-0.842431 3.04803,-2.971404 3.75754,-3.97488 0.64869,-0.917444 1.55969,-2.368191 1.55969,-2.483764 0,-0.02946 0.10126,-0.206575 0.22503,-0.393597 0.28273,-0.42724 0.28303,-0.739287 0.002,-2.125291 -0.11649,-0.574587 -0.25026,-1.3242 -0.29725,-1.665807 -0.0934,-0.6786 -0.15417,-0.807785 -0.27698,-0.588341 -0.0443,0.0791 -0.22047,0.32643 -0.39156,0.549628 -0.32508,0.424086 -0.5757,0.811809 -1.42026,2.197182 -0.65861,1.08036 -0.67178,1.104539 -1.46869,2.695966 -0.82117,1.639868 -1.21748,2.564015 -1.77913,4.148667 -0.16825,0.474714 -0.60451,1.942073 -0.60451,2.033279 0,0.118663 0.21431,-0.0027 0.6941,-0.393042 z m 7.12478,-10.932403 c 0.59601,-2.191572 0.86774,-3.683889 0.6565,-3.605389 -0.094,0.03492 -1.33426,1.39733 -1.50828,1.656794 -0.10601,0.158055 -0.11134,0.276646 -0.0324,0.719666 0.052,0.291736 0.15082,0.854279 0.21959,1.250095 0.16829,0.968634 0.20274,1.100667 0.28719,1.100667 0.0398,0 0.20958,-0.504825 0.37737,-1.121833 z m -0.29389,-5.291667 c 0.45307,-0.407458 0.95028,-0.850125 1.10492,-0.983704 l 0.28115,-0.242872 -0.0426,-1.154128 c -0.0658,-1.782875 -0.49208,-3.244768 -1.05332,-3.612512 -0.39073,-0.256012 -0.64072,0.02992 -0.87375,0.999359 -0.20637,0.858493 -0.45191,5.73469 -0.28877,5.73469 0.0267,0 0.41931,-0.333375 0.87238,-0.740833 z"
       id="path302" /></g></svg>
